#!OML:ASF H:\Dans Jumps\Project 1\Capture day 1\Session 1\subject.ASF
:FULLY-SPECIFIED
:DEGREES
648
root 0.268127 17.6518 -6.74705 10.4533 -0.833316 -1.25367
lowerback 4.1881 0.38503 -0.301939
upperback 5.7009 0.482473 0.919239
thorax 3.51483 0.207826 1.11099
lowerneck -12.8877 0.12845 -1.09978
upperneck 32.8324 0.0139708 1.4073
head 13.134 0.0542767 0.744523
rclavicle 2.98177e-016 -2.38542e-015
rhumerus -34.5418 -9.33586 -81.4091
rradius 35.3643
rwrist 22.1505
rhand -19.1305 -25.3072
rfingers 7.12502
rthumb 7.17921 -55.1654
lclavicle 2.98177e-016 -2.38542e-015
lhumerus -35.0982 -6.30474 91.6181
lradius 41.7142
lwrist 23.2864
lhand -29.4136 -8.0351
lfingers 7.12502
lthumb -2.75115 21.9269
rfemur -25.1395 -1.77233 19.3168
rtibia 27.4438
rfoot -11.9063 1.17961
rtoes 15.2484
lfemur -23.0326 6.96995 -18.5525
ltibia 24.6026
lfoot -10.1676 5.09866
ltoes 6.58663
649
root 0.266675 17.6522 -6.74908 10.4309 -0.821029 -1.24403
lowerback 4.17498 0.384983 -0.308732
upperback 5.70102 0.482254 0.92161
thorax 3.52224 0.207384 1.11734
lowerneck -12.8929 0.12704 -1.09706
upperneck 32.863 0.0133221 1.40079
head 13.1482 0.0534996 0.741727
rclavicle -3.72721e-015 1.98785e-015
rhumerus -34.5005 -9.2696 -81.4583
rradius 35.4801
rwrist 22.0719
rhand -19.1267 -25.3193
rfingers 7.12502
rthumb 7.18288 -55.1774
lclavicle -3.72721e-015 1.98785e-015
lhumerus -35.0272 -6.38996 91.658
lradius 42.0244
lwrist 22.8402
lhand -29.451 -7.90199
lfingers 7.12502
lthumb -2.78727 22.0595
rfemur -25.1157 -1.78129 19.3115
rtibia 27.4338
rfoot -11.8948 1.18001
rtoes 15.2366
lfemur -23.0009 6.96624 -18.5546
ltibia 24.5703
lfoot -10.1518 5.08028
ltoes 6.61589
650
root 0.265334 17.6526 -6.75115 10.4092 -0.810037 -1.23522
lowerback 4.16253 0.385264 -0.315432
upperback 5.70064 0.482469 0.924291
thorax 3.52877 0.20716 1.12395
lowerneck -12.8986 0.124928 -1.09631
upperneck 32.8945 0.0118424 1.39531
head 13.163 0.0522497 0.73957
rclavicle -7.95139e-016 -5.66536e-015
rhumerus -34.4605 -9.20811 -81.5024
rradius 35.5832
rwrist 22.0035
rhand -19.1345 -25.3129
rfingers 7.12502
rthumb 7.17535 -55.1713
lclavicle -7.95139e-016 -5.66536e-015
lhumerus -34.9619 -6.46683 91.6859
lradius 42.302
lwrist 22.316
lhand -29.459 -7.69586
lfingers 7.12502
lthumb -2.79501 22.2656
rfemur -25.0923 -1.78957 19.3068
rtibia 27.4229
rfoot -11.8843 1.18067
rtoes 15.2219
lfemur -22.9684 6.96175 -18.5561
ltibia 24.5351
lfoot -10.1349 5.06491
ltoes 6.63964
651
root 0.264125 17.653 -6.75319 10.387 -0.799297 -1.22766
lowerback 4.15061 0.384986 -0.320722
upperback 5.70063 0.48196 0.926988
thorax 3.53539 0.206625 1.1298
lowerneck -12.9029 0.122025 -1.09742
upperneck 32.9275 0.00929228 1.391
head 13.1781 0.0504407 0.738041
rclavicle -1.14301e-015 -4.96962e-016
rhumerus -34.4201 -9.15084 -81.5432
rradius 35.6722
rwrist 21.9397
rhand -19.1502 -25.2912
rfingers 7.12502
rthumb 7.16012 -55.1501
lclavicle -1.14301e-015 -4.96962e-016
lhumerus -34.9016 -6.53086 91.7006
lradius 42.5477
lwrist 21.7554
lhand -29.438 -7.4463
lfingers 7.12502
lthumb -2.77474 22.5154
rfemur -25.0662 -1.79719 19.3026
rtibia 27.4093
rfoot -11.8749 1.1819
rtoes 15.2196
lfemur -22.934 6.95593 -18.5566
ltibia 24.498
lfoot -10.1189 5.05133
ltoes 6.66342
652
root 0.263449 17.6538 -6.75487 10.366 -0.783113 -1.21526
lowerback 4.13202 0.380722 -0.324926
upperback 5.70501 0.476206 0.927135
thorax 3.5505 0.203523 1.13254
lowerneck -12.9206 0.120658 -1.08693
upperneck 32.9661 0.0108717 1.37173
head 13.1985 0.0499113 0.729323
rclavicle -1.59028e-015 -2.38542e-015
rhumerus -34.3705 -9.09527 -81.587
rradius 35.7529
rwrist 21.8645
rhand -19.1519 -25.3004
rfingers 7.12502
rthumb 7.15853 -55.1593
lclavicle -1.59028e-015 -2.38542e-015
lhumerus -34.8387 -6.57422 91.6994
lradius 42.7673
lwrist 21.212
lhand -29.3906 -7.16762
lfingers 7.12502
lthumb -2.72891 22.7947
rfemur -25.0359 -1.82492 19.2933
rtibia 27.3913
rfoot -11.8678 1.19765
rtoes 15.231
lfemur -22.897 6.94491 -18.5649
ltibia 24.4585
lfoot -10.1051 5.03762
ltoes 6.68681
653
root 0.262842 17.6546 -6.75647 10.3459 -0.769823 -1.20716
lowerback 4.11239 0.376206 -0.327039
upperback 5.70934 0.470101 0.9289
thorax 3.56615 0.200284 1.13579
lowerneck -12.9415 0.119847 -1.07746
upperneck 33.0061 0.0130638 1.35382
head 13.2202 0.0496868 0.721423
rclavicle 4.52235e-015 3.57812e-015
rhumerus -34.3186 -9.04824 -81.6246
rradius 35.811
rwrist 21.8049
rhand -19.1541 -25.3065
rfingers 7.12502
rthumb 7.1564 -55.1655
lclavicle 4.52235e-015 3.57812e-015
lhumerus -34.7805 -6.60481 91.6915
lradius 42.9567
lwrist 20.7506
lhand -29.3417 -6.93322
lfingers 7.12502
lthumb -2.68167 23.0297
rfemur -25.0038 -1.84709 19.2877
rtibia 27.3677
rfoot -11.8585 1.21141
rtoes 15.2555
lfemur -22.8595 6.93509 -18.5687
ltibia 24.4177
lfoot -10.0901 5.0262
ltoes 6.71919
